<svg width="718" height="166" viewBox="0 0 718 166" fill="none" xmlns="http://www.w3.org/2000/svg">
<path d="M166 83C166 128.84 128.84 166 83 166C37.1604 166 0 128.84 0 83C0 37.1604 37.1604 0 83 0C128.84 0 166 37.1604 166 83Z" fill="url(#paint0_radial_24_10)"/>
<path d="M85.7469 39.189L54.0797 39L72.8525 57.1401C78.162 56.6866 84.4195 59.2187 86.5054 61.1083C92.1183 64.1316 92.5734 71.3121 91.4356 73.9575C90.2979 78.6815 82.3337 83.2166 77.2138 83.5945H53.3212L87.6432 127.811H112.863L91.6253 100.034C100.727 97.1996 106.575 89.6917 108.312 86.8068C110.019 83.9724 112.863 77.7367 112.863 71.1231C112.863 65.679 111.536 60.6674 110.777 58.8408C107.364 48.6369 96.9347 39.5669 85.7469 39.189Z" fill="#F2F2FF"/>
<path d="M53.3212 128V105.514L71.7147 128H53.3212Z" fill="#F2F2FF"/>
<path d="M125.758 122.709C125.758 125.527 123.465 127.811 120.638 127.811C117.81 127.811 115.518 125.527 115.518 122.709C115.518 119.891 117.81 117.607 120.638 117.607C123.465 117.607 125.758 119.891 125.758 122.709Z" fill="#F2F2FF"/>
<path d="M208.24 65.8C213.801 65.8 218.331 66.3447 221.828 67.434C225.325 68.5233 227.877 70.358 229.482 72.938C231.145 75.4607 231.976 79.044 231.976 83.688C231.976 86.2107 231.603 88.504 230.858 90.568C230.17 92.632 228.966 94.3233 227.246 95.642C225.526 96.9033 223.175 97.706 220.194 98.05V98.566C221.283 98.6807 222.43 99.0247 223.634 99.598C224.895 100.171 226.042 101.117 227.074 102.436C228.163 103.697 228.937 105.446 229.396 107.682L234.298 126H217.356L213.142 108.198C212.741 106.363 212.11 105.159 211.25 104.586C210.39 103.955 209.129 103.64 207.466 103.64C203.338 103.583 199.927 103.554 197.232 103.554C194.537 103.554 192.244 103.525 190.352 103.468C188.517 103.411 186.769 103.325 185.106 103.21L185.364 91.944H207.896C209.96 91.944 211.537 91.7433 212.626 91.342C213.773 90.9407 214.575 90.224 215.034 89.192C215.493 88.1027 215.722 86.612 215.722 84.72C215.722 82.7707 215.493 81.28 215.034 80.248C214.575 79.216 213.773 78.4993 212.626 78.098C211.537 77.6967 209.96 77.496 207.896 77.496C202.22 77.496 197.404 77.5247 193.448 77.582C189.549 77.6393 186.883 77.7253 185.45 77.84L184.16 66.66C186.683 66.3733 189.062 66.1727 191.298 66.058C193.534 65.9433 195.971 65.886 198.608 65.886C201.303 65.8287 204.513 65.8 208.24 65.8ZM199.984 66.66V126H184.16V66.66H199.984ZM264.147 82.054C267.989 82.054 271.228 82.57 273.865 83.602C276.56 84.634 278.595 86.354 279.971 88.762C281.347 91.17 282.035 94.4953 282.035 98.738V126H269.565L267.415 116.798L266.383 115.25V98.652C266.326 96.8747 265.867 95.6133 265.007 94.868C264.205 94.0653 262.714 93.664 260.535 93.664C258.299 93.664 255.547 93.7213 252.279 93.836C249.011 93.8933 245.6 94.0367 242.045 94.266L240.669 84.204C242.791 83.8027 245.256 83.4587 248.065 83.172C250.932 82.828 253.799 82.57 256.665 82.398C259.532 82.1687 262.026 82.054 264.147 82.054ZM275.843 99.77L275.757 107.682H257.439C256.121 107.739 255.146 108.083 254.515 108.714C253.942 109.287 253.655 110.09 253.655 111.122V112.756C253.655 113.845 253.999 114.705 254.687 115.336C255.433 115.909 256.522 116.196 257.955 116.196C259.389 116.196 260.908 115.881 262.513 115.25C264.119 114.619 265.695 113.759 267.243 112.67C268.791 111.581 270.139 110.405 271.285 109.144V114.648C270.827 115.565 270.11 116.712 269.135 118.088C268.218 119.464 267.014 120.869 265.523 122.302C264.033 123.678 262.227 124.825 260.105 125.742C257.984 126.659 255.519 127.118 252.709 127.118C250.129 127.118 247.75 126.659 245.571 125.742C243.393 124.825 241.644 123.477 240.325 121.7C239.064 119.923 238.433 117.687 238.433 114.992V110.692C238.433 107.252 239.637 104.586 242.045 102.694C244.511 100.745 247.836 99.77 252.021 99.77H275.843ZM305.174 82.054C308.327 82.054 311.309 82.5127 314.118 83.43C316.927 84.3473 319.307 85.924 321.256 88.16L320.138 94.61C318.647 94.1513 317.243 93.7213 315.924 93.32C314.663 92.8613 313.057 92.632 311.108 92.632C309.675 92.632 308.499 92.89 307.582 93.406C306.722 93.922 306.063 95.0113 305.604 96.674C305.203 98.2793 305.002 100.745 305.002 104.07C305.002 107.051 305.203 109.287 305.604 110.778C306.005 112.211 306.636 113.186 307.496 113.702C308.413 114.161 309.531 114.39 310.85 114.39C312.226 114.39 313.373 114.275 314.29 114.046C315.265 113.759 316.182 113.387 317.042 112.928C317.902 112.412 318.848 111.839 319.88 111.208L320.912 118.088C319.536 120.611 317.501 122.732 314.806 124.452C312.111 126.172 308.614 127.032 304.314 127.032C298.753 127.032 294.797 125.054 292.446 121.098C290.095 117.085 288.92 111.437 288.92 104.156C288.92 98.3653 289.522 93.8933 290.726 90.74C291.987 87.5293 293.822 85.2933 296.23 84.032C298.638 82.7133 301.619 82.054 305.174 82.054ZM333.984 65.8V126H321.6L320.052 117.916L318.418 116.798V89.364L318.934 88.246C318.762 86.4687 318.619 84.5767 318.504 82.57C318.447 80.5633 318.418 78.5853 318.418 76.636V65.8H333.984ZM358.698 83.258V126H343.132V83.258H358.698ZM354.226 63.994C357.265 63.994 358.784 65.542 358.784 68.638V73.11C358.784 76.206 357.265 77.754 354.226 77.754H347.518C344.48 77.754 342.96 76.206 342.96 73.11V68.638C342.96 65.542 344.48 63.994 347.518 63.994H354.226ZM391.552 82.054C395.393 82.054 398.632 82.57 401.27 83.602C403.964 84.634 406 86.354 407.376 88.762C408.752 91.17 409.44 94.4953 409.44 98.738V126H396.97L394.82 116.798L393.788 115.25V98.652C393.73 96.8747 393.272 95.6133 392.412 94.868C391.609 94.0653 390.118 93.664 387.94 93.664C385.704 93.664 382.952 93.7213 379.684 93.836C376.416 93.8933 373.004 94.0367 369.45 94.266L368.074 84.204C370.195 83.8027 372.66 83.4587 375.47 83.172C378.336 82.828 381.203 82.57 384.07 82.398C386.936 82.1687 389.43 82.054 391.552 82.054ZM403.248 99.77L403.162 107.682H384.844C383.525 107.739 382.55 108.083 381.92 108.714C381.346 109.287 381.06 110.09 381.06 111.122V112.756C381.06 113.845 381.404 114.705 382.092 115.336C382.837 115.909 383.926 116.196 385.36 116.196C386.793 116.196 388.312 115.881 389.918 115.25C391.523 114.619 393.1 113.759 394.648 112.67C396.196 111.581 397.543 110.405 398.69 109.144V114.648C398.231 115.565 397.514 116.712 396.54 118.088C395.622 119.464 394.418 120.869 392.928 122.302C391.437 123.678 389.631 124.825 387.51 125.742C385.388 126.659 382.923 127.118 380.114 127.118C377.534 127.118 375.154 126.659 372.976 125.742C370.797 124.825 369.048 123.477 367.73 121.7C366.468 119.923 365.838 117.687 365.838 114.992V110.692C365.838 107.252 367.042 104.586 369.45 102.694C371.915 100.745 375.24 99.77 379.426 99.77H403.248ZM449.52 82.054C457.776 82.054 461.904 86.0387 461.904 94.008V126H446.252V98.91C446.252 97.534 445.966 96.588 445.392 96.072C444.876 95.556 443.93 95.298 442.554 95.298C441.121 95.298 439.573 95.4987 437.91 95.9C436.305 96.3013 434.27 97.0467 431.804 98.136L431.03 90.052C434.012 87.4147 437.079 85.4367 440.232 84.118C443.386 82.742 446.482 82.054 449.52 82.054ZM430.17 83.258L432.062 91.858L433.438 92.976V126H417.786V83.258H430.17ZM490.225 71.734V111.294C490.225 112.555 490.54 113.473 491.171 114.046C491.801 114.619 492.862 114.906 494.353 114.906H499.341L501.061 125.14C499.914 125.599 498.509 125.971 496.847 126.258C495.241 126.545 493.607 126.745 491.945 126.86C490.282 127.032 488.849 127.118 487.645 127.118C483.631 127.118 480.449 126.086 478.099 124.022C475.805 121.901 474.659 118.977 474.659 115.25L474.573 71.734H490.225ZM501.319 83.258V92.976H467.263V83.688L475.519 83.258H501.319ZM555.091 66.66C556.409 66.66 557.556 67.0327 558.531 67.778C559.563 68.5233 560.251 69.5553 560.595 70.874L576.849 126H560.337L549.931 85.064C549.701 84.0893 549.501 83.0573 549.329 81.968C549.157 80.8213 548.985 79.7607 548.813 78.786H546.491C546.376 79.7607 546.204 80.8213 545.975 81.968C545.803 83.0573 545.602 84.0893 545.373 85.064L534.967 126H518.455L534.709 70.874C535.053 69.5553 535.712 68.5233 536.687 67.778C537.719 67.0327 538.894 66.66 540.213 66.66H555.091ZM563.261 100.286V111.896H532.043V100.286H563.261ZM593.012 83.258L594.904 91.858L596.452 92.976V126H580.8V83.258H593.012ZM613.824 82.054L612.448 96.416H608.32C606.6 96.416 604.708 96.588 602.644 96.932C600.58 97.276 597.971 97.8493 594.818 98.652L593.872 90.138C596.739 87.4433 599.663 85.4367 602.644 84.118C605.683 82.742 608.607 82.054 611.416 82.054H613.824ZM638.899 82.054C640.562 82.054 642.396 82.14 644.403 82.312C646.41 82.484 648.416 82.7993 650.423 83.258C652.43 83.6593 654.236 84.2327 655.841 84.978L654.293 94.696C651.713 94.696 649.391 94.696 647.327 94.696C645.263 94.6387 643.342 94.61 641.565 94.61C639.386 94.61 637.666 94.8967 636.405 95.47C635.144 96.0433 634.255 97.0467 633.739 98.48C633.223 99.856 632.965 101.891 632.965 104.586C632.965 107.223 633.223 109.287 633.739 110.778C634.255 112.211 635.144 113.215 636.405 113.788C637.666 114.304 639.386 114.562 641.565 114.562C642.54 114.562 643.744 114.562 645.177 114.562C646.61 114.505 648.187 114.447 649.907 114.39C651.627 114.275 653.347 114.132 655.067 113.96L656.529 123.764C654.064 124.968 651.254 125.799 648.101 126.258C645.005 126.774 641.88 127.032 638.727 127.032C633.338 127.032 629.009 126.315 625.741 124.882C622.473 123.391 620.122 121.012 618.689 117.744C617.256 114.419 616.539 110.033 616.539 104.586C616.539 99.0247 617.256 94.61 618.689 91.342C620.18 88.074 622.559 85.7233 625.827 84.29C629.095 82.7993 633.452 82.054 638.899 82.054ZM671.025 111.38C673.089 111.38 674.493 111.781 675.239 112.584C676.041 113.387 676.443 114.791 676.443 116.798V120.582C676.443 122.589 676.041 123.993 675.239 124.796C674.493 125.599 673.089 126 671.025 126H667.413C665.349 126 663.915 125.599 663.113 124.796C662.367 123.993 661.995 122.589 661.995 120.582V116.798C661.995 114.791 662.367 113.387 663.113 112.584C663.915 111.781 665.349 111.38 667.413 111.38H671.025Z" fill="url(#paint1_radial_24_10)"/>
<defs>
<radialGradient id="paint0_radial_24_10" cx="0" cy="0" r="1" gradientUnits="userSpaceOnUse" gradientTransform="translate(2.72945 16.8729) rotate(49.0666) scale(188.035)">
<stop offset="0.208333" stop-color="#2D1462"/>
<stop offset="0.463542" stop-color="#414070"/>
<stop offset="0.770833" stop-color="#280137"/>
</radialGradient>
<radialGradient id="paint1_radial_24_10" cx="0" cy="0" r="1" gradientUnits="userSpaceOnUse" gradientTransform="translate(187.862 29.8072) rotate(15.0855) scale(414.297 210.334)">
<stop offset="0.208333" stop-color="#2D1462"/>
<stop offset="0.463542" stop-color="#414070"/>
<stop offset="0.770833" stop-color="#280137"/>
</radialGradient>
</defs>
</svg>
